<?xml version="1.0" encoding="UTF-8" standalone="no"?>
<!-- Created with Inkscape (http://www.inkscape.org/) -->

<svg
        xmlns:inkscape="http://www.inkscape.org/namespaces/inkscape"
        xmlns:sodipodi="http://sodipodi.sourceforge.net/DTD/sodipodi-0.dtd"
        version="1.1"
        id="svg1"
        width="32"
        height="32"
        viewBox="0 0 32 32"
        sodipodi:docname="PrintUpdateIcon.svg"
        inkscape:version="1.3.2 (091e20e, 2023-11-25, custom)"
        xml:space="preserve"
        xmlns="http://www.w3.org/2000/svg"
><defs
     id="defs1" />
    <sodipodi:namedview
            id="namedview1"
            pagecolor="#505050"
            bordercolor="#eeeeee"
            borderopacity="1"
            inkscape:showpageshadow="0"
            inkscape:pageopacity="0"
            inkscape:pagecheckerboard="0"
            inkscape:deskcolor="#505050"
            showgrid="true"
            inkscape:zoom="22.627417"
            inkscape:cx="13.302446"
            inkscape:cy="18.672038"
            inkscape:window-width="1920"
            inkscape:window-height="1009"
            inkscape:window-x="-8"
            inkscape:window-y="-8"
            inkscape:window-maximized="1"
            inkscape:current-layer="g1"><inkscape:grid
       id="grid116"
       units="px"
       originx="0"
       originy="0"
       spacingx="1"
       spacingy="1"
       empcolor="#0099e5"
       empopacity="0.30196078"
       color="#0099e5"
       opacity="0.14901961"
       empspacing="5"
       dotted="false"
       gridanglex="30"
       gridanglez="30"
       visible="true" /></sodipodi:namedview>
    <g
            inkscape:groupmode="layer"
            inkscape:label="Light"
            id="g1"
            style="display:inline"
            transform="scale(0.125)"><path
       id="path51"
       style="display:inline;fill:#666666;fill-opacity:1"
       d="m 304,48 h 8 V 8 h -8 z m 0,-48 v 8 h 8 144 V 0 Z m 152,0 v 8 40 h 8 V 0 Z m 16,48 v 8 h 32 v -8 z m 32,0 v 8 144 h 8 V 48 Z M 256,199.98633 h 8 V 56 h -8 z M 256,56 h 8 32 v -8 h -40 z m 40,-8 v 8 40 h 16 V 48 h -8 z m 0,48 v 8 H 456 V 96 H 312 Z m 160,0 v 8 0.0352 h 16 V 96 Z m 0,-40 v 40 h 16 V 56 Z m 8,-8 h -8 v 8 h 16 v -8 z m -8,104 H 312 v 8 h 144 z m 56,48 h -8 -32 v 8 h 40 z m -40,8 v -8 -48 h -16 v 8 48 z m -8,0 h -8 v 40 h 8 z m 0,40 h -8 -144 v 8 h 152 z m -152,8 v -8 -40 h -8 v 48 z m -16,-48 v -8.01367 h -32 -8 V 208 Z m 8,0 h 8 v -48 -8 H 296 V 199.98633 208 Z"
       transform="translate(-256)"
       inkscape:label="Border" />
        <rect
                style="display:inline;fill:#f2f2f2;fill-opacity:1"
                id="rect51"
                width="144"
                height="88"
                x="312"
                y="8"
                transform="translate(-256)"
                inkscape:label="Paper"/>
        <path
                id="path55"
                style="display:inline;fill:#f2f2f2"
                d="m 264,56 v 71.99219 h 32 V 128 H 504 V 104.03516 H 472 V 104 H 296 V 56 Z m 208,48 h 32 V 56 h -32 z"
                transform="translate(-256)"
                inkscape:label="Top"/>
        <path
                id="rect56"
                style="display:inline;fill:#999999;fill-opacity:1"
                d="M 264,127.99219 V 152 199.98633 h 32 V 152 h 176 v 48 h 32 v -72 h -32 v -0.008 z"
                transform="translate(-256)"
                inkscape:label="Shadowed"/>
        <path
                id="rect58"
                style="display:inline;fill:#f2f2f2;fill-opacity:1"
                d="m 312,160 v 80 8 h 144 v -8 -80 h -8 v 80 H 320 v -80 z"
                transform="translate(-256)"
                inkscape:label="LowerBorder"/>
        <rect
                style="display:inline;fill:#67b1e6;fill-opacity:1"
                id="rect60"
                width="128"
                height="80"
                x="320"
                y="160"
                transform="translate(-256)"
                inkscape:label="Lower"/>
        <g
                id="g66"
                transform="matrix(7.8963866,0,0,7.8701965,-477.74706,-135.64988)"
                style="display:inline"><path
         d="m 82.279297,25.826172 v 1.638672 c 0.08226,0.0039 0.162285,0.01795 0.24414,0.02344 0.136292,0.01036 0.271789,0.02241 0.40625,0.03906 0.148886,0.01849 0.297116,0.04041 0.44336,0.06641 0.131622,0.02336 0.261036,0.04888 0.390625,0.07813 0.144419,0.0327 0.286159,0.06956 0.427734,0.109375 0.126745,0.03575 0.2546,0.07205 0.378906,0.113281 0.139339,0.04631 0.27427,0.09933 0.410157,0.152344 0.120853,0.04712 0.243116,0.09408 0.361328,0.146484 0.133447,0.05931 0.262786,0.123848 0.392578,0.189453 0.114759,0.05809 0.228131,0.114771 0.339844,0.177735 0.126745,0.0715 0.250363,0.148971 0.373047,0.226562 0.107651,0.06804 0.215911,0.13452 0.320312,0.207032 0.119429,0.08327 0.232694,0.172755 0.347656,0.261718 0.09993,0.07739 0.200393,0.152723 0.296875,0.234375 0.111307,0.09404 0.217987,0.195393 0.324219,0.294922 0.09161,0.08592 0.183535,0.169986 0.271484,0.259766 0.102577,0.104807 0.199785,0.214331 0.296875,0.324219 0.08267,0.09364 0.167489,0.186112 0.246094,0.283203 0.09283,0.114759 0.178487,0.233878 0.265625,0.353515 0.07313,0.100341 0.148144,0.199347 0.216797,0.302735 0.08287,0.124712 0.158001,0.253629 0.234375,0.382812 0.06256,0.105826 0.127455,0.209897 0.185547,0.31836 0.07231,0.135075 0.135972,0.274926 0.201172,0.414062 0.05119,0.109482 0.105627,0.21621 0.152344,0.328125 0.06093,0.145839 0.11105,0.297366 0.164062,0.447266 0.0392,0.111104 0.08245,0.220847 0.117188,0.333984 0.04936,0.160258 0.08714,0.324368 0.126953,0.488281 0.0264,0.108063 0.05794,0.214535 0.08008,0.324219 0.03717,0.184239 0.06075,0.372257 0.08594,0.560547 0.01239,0.09364 0.03342,0.184848 0.04297,0.279297 0.02864,0.284793 0.04297,0.573151 0.04297,0.865234 0,1.513661 -0.398165,2.998613 -1.152344,4.294922 -0.06378,0.109685 -0.174847,0.184719 -0.300781,0.201172 -0.125726,0.01503 -0.25397,-0.02721 -0.34375,-0.117188 l -0.621094,-0.621093 -0.257812,2.33789 c 0,0.0014 2.08e-4,0.0027 0,0.0039 l -0.134766,1.214843 3.556641,-0.394531 -0.757813,-0.755859 c -0.137919,-0.137717 -0.158432,-0.353334 -0.05078,-0.515625 1.112028,-1.674127 1.699219,-3.628057 1.699219,-5.648438 0,-5.505232 -4.370673,-10.009104 -9.824219,-10.224609 z"
         style="fill:#00ff00"
         id="path60" />
            <path
                    d="m 81.871094,25 c -0.226072,0 -0.410157,0.184085 -0.410157,0.410156 v 2.455078 c 0,0.226072 0.184085,0.410157 0.410157,0.410157 4.288427,0 7.777343,3.488968 7.777343,7.777343 0,1.18805 -0.27214,2.354621 -0.789062,3.408203 l -0.833984,-0.833984 c -0.110902,-0.111104 -0.275551,-0.147904 -0.423829,-0.0957 -0.14848,0.052 -0.254215,0.185195 -0.271484,0.341797 l -0.544922,4.910156 c -0.01381,0.123698 0.02944,0.247988 0.117188,0.335938 0.07678,0.07719 0.181005,0.11914 0.289062,0.11914 0.01483,0 0.03009,-3.25e-4 0.04492,-0.002 l 4.914063,-0.544922 c 0.156196,-0.01747 0.287643,-0.123009 0.339843,-0.271484 0.052,-0.14848 0.01561,-0.312724 -0.0957,-0.423828 l -1.126953,-1.126953 c 1.083846,-1.744376 1.654297,-3.749153 1.654297,-5.81836 C 92.921875,29.956621 87.964838,25 81.871094,25 Z m 0.408203,0.826172 c 5.453546,0.215505 9.824219,4.719377 9.824219,10.224609 0,2.020381 -0.587191,3.974311 -1.699219,5.648438 -0.107651,0.162291 -0.08714,0.377908 0.05078,0.515625 l 0.757813,0.755859 -3.556641,0.394531 0.134766,-1.214843 c 2.08e-4,-0.0012 0,-0.0025 0,-0.0039 l 0.257812,-2.33789 0.621094,0.621093 c 0.08978,0.08998 0.218024,0.132215 0.34375,0.117188 0.125934,-0.01645 0.237,-0.09149 0.300781,-0.201172 0.754179,-1.296309 1.152344,-2.781261 1.152344,-4.294922 0,-0.292083 -0.01433,-0.580441 -0.04297,-0.865234 -0.0095,-0.09445 -0.03058,-0.185659 -0.04297,-0.279297 -0.02519,-0.18829 -0.04877,-0.376308 -0.08594,-0.560547 -0.02214,-0.109684 -0.05367,-0.216156 -0.08008,-0.324219 -0.03981,-0.163913 -0.0776,-0.328023 -0.126953,-0.488281 -0.03473,-0.113137 -0.07799,-0.22288 -0.117188,-0.333984 -0.05301,-0.1499 -0.103131,-0.301427 -0.164062,-0.447266 -0.04672,-0.111915 -0.101157,-0.218643 -0.152344,-0.328125 -0.0652,-0.139136 -0.128858,-0.278987 -0.201172,-0.414062 -0.05809,-0.108463 -0.122988,-0.212534 -0.185547,-0.31836 -0.07637,-0.129183 -0.151501,-0.2581 -0.234375,-0.382812 -0.06865,-0.103388 -0.143672,-0.202394 -0.216797,-0.302735 -0.08714,-0.119637 -0.172798,-0.238756 -0.265625,-0.353515 -0.0786,-0.09709 -0.163422,-0.189565 -0.246094,-0.283203 -0.09709,-0.109888 -0.194298,-0.219412 -0.296875,-0.324219 -0.08795,-0.08978 -0.179879,-0.17385 -0.271484,-0.259766 -0.106232,-0.09953 -0.212912,-0.200878 -0.324219,-0.294922 -0.09648,-0.08165 -0.196945,-0.156986 -0.296875,-0.234375 -0.114962,-0.08896 -0.228227,-0.178444 -0.347656,-0.261718 -0.104401,-0.07251 -0.212661,-0.138987 -0.320312,-0.207032 -0.122684,-0.07759 -0.246302,-0.155065 -0.373047,-0.226562 -0.111713,-0.06296 -0.225085,-0.119642 -0.339844,-0.177735 -0.129792,-0.06561 -0.259131,-0.130144 -0.392578,-0.189453 -0.118212,-0.0524 -0.240475,-0.09936 -0.361328,-0.146484 -0.135887,-0.05301 -0.270818,-0.106034 -0.410157,-0.152344 -0.124306,-0.04123 -0.252161,-0.07753 -0.378906,-0.113281 -0.141575,-0.03981 -0.283315,-0.07667 -0.427734,-0.109375 -0.129589,-0.02925 -0.259003,-0.05477 -0.390625,-0.07813 -0.146244,-0.026 -0.294474,-0.04792 -0.44336,-0.06641 -0.134461,-0.01666 -0.269958,-0.0287 -0.40625,-0.03906 -0.08186,-0.0055 -0.161879,-0.01958 -0.24414,-0.02344 z"
                    id="path61"/>
            <path
                    d="m 82.689453,43.626953 c -0.106027,-10e-7 -0.211877,0.04 -0.289062,0.117188 l -1.876954,1.876953 c -0.160065,0.159857 -0.420226,0.159446 -0.580078,0 l -0.238281,-0.240235 c -0.07739,-0.07739 -0.181737,-0.11914 -0.291016,-0.11914 -0.109278,0 -0.211876,0.04216 -0.289062,0.11914 -0.07739,0.07759 -0.119141,0.179784 -0.119141,0.289063 0,0.109279 0.04175,0.211877 0.119141,0.289062 l 0.818359,0.820313 c 0.154783,0.154782 0.425707,0.154371 0.580078,0 l 2.455079,-2.457031 c 0.07739,-0.07739 0.121093,-0.179784 0.121093,-0.289063 0,-0.109279 -0.04391,-0.211877 -0.121093,-0.289062 -0.07739,-0.0776 -0.183036,-0.117187 -0.289063,-0.117188 z"
                    style="fill:#00ff00"
                    id="path62"/>
            <path
                    d="m 82.689453,42.816406 c -0.318279,2.6e-5 -0.635536,0.115798 -0.867187,0.347656 l -1.589844,1.589844 c -0.467779,-0.418219 -1.239093,-0.397625 -1.685547,0.04883 -0.23216,0.231958 -0.359375,0.539185 -0.359375,0.867188 0,0.328003 0.127412,0.637178 0.359375,0.86914 l 0.818359,0.81836 c 0.231958,0.23216 0.54093,0.359375 0.869141,0.359375 0.328211,0 0.635433,-0.127615 0.867187,-0.359375 l 2.457032,-2.455078 c 0.231957,-0.232161 0.359375,-0.541138 0.359375,-0.869141 0,-0.328034 -0.127615,-0.637386 -0.359375,-0.869141 -0.231859,-0.23196 -0.550861,-0.347681 -0.869141,-0.347656 z m 0,0.810547 c 0.106027,10e-7 0.211671,0.03959 0.289063,0.117188 0.07719,0.07719 0.121093,0.179783 0.121093,0.289062 0,0.109279 -0.04371,0.211674 -0.121093,0.289063 l -2.455079,2.457031 c -0.154371,0.154371 -0.425295,0.154782 -0.580078,0 L 79.125,45.958984 c -0.07739,-0.07719 -0.119141,-0.179783 -0.119141,-0.289062 0,-0.109279 0.04175,-0.211471 0.119141,-0.289063 0.07719,-0.07698 0.179784,-0.11914 0.289062,-0.11914 0.109279,0 0.213628,0.04175 0.291016,0.11914 l 0.238281,0.240235 c 0.159852,0.159446 0.420013,0.159857 0.580078,0 l 1.876954,-1.876953 c 0.07719,-0.07719 0.183035,-0.117189 0.289062,-0.117188 z"
                    id="path63"/>
            <path
                    d="m 81.052734,41.578125 c -1.432959,0 -2.74653,0.838723 -3.345703,2.138672 -0.132839,0.287861 -0.227752,0.597245 -0.283203,0.917969 -0.03697,0.20353 -0.05664,0.413475 -0.05664,0.626953 0,0.04814 1.72e-4,0.09249 0.0059,0.140625 0.0016,0.01219 0.0015,0.02492 0.002,0.03711 0.0037,0.100543 0.013,0.198237 0.02539,0.294922 0.013,0.102571 0.02884,0.199987 0.05078,0.296875 0.0589,0.298988 0.155535,0.582602 0.291015,0.857422 0.176118,0.35993 0.410418,0.685808 0.69336,0.96875 0.701348,0.701364 1.630838,1.08789 2.617187,1.08789 2.031405,0 3.683802,-1.652449 3.683594,-3.683593 0,-2.031196 -1.652449,-3.683594 -3.683594,-3.683594 z m 1.636719,1.238281 c 0.31828,-2.5e-5 0.637282,0.115696 0.869141,0.347656 0.23176,0.231755 0.359375,0.541107 0.359375,0.869141 0,0.328003 -0.127418,0.63698 -0.359375,0.869141 l -2.457032,2.455078 c -0.231754,0.23176 -0.538976,0.359375 -0.867187,0.359375 -0.328211,0 -0.637183,-0.127215 -0.869141,-0.359375 l -0.818359,-0.81836 C 78.314912,46.3071 78.1875,45.997925 78.1875,45.669922 c 0,-0.328003 0.127215,-0.63523 0.359375,-0.867188 0.446454,-0.446453 1.217768,-0.467047 1.685547,-0.04883 l 1.589844,-1.589844 c 0.231651,-0.231858 0.548908,-0.34763 0.867187,-0.347656 z"
                    style="fill:#f9f9f9"
                    id="path64"/>
            <path
                    d="m 75.685547,28.072266 -4.91211,0.544921 c -0.156196,0.01747 -0.289596,0.121057 -0.341796,0.269532 -0.052,0.14848 -0.01365,0.314677 0.09766,0.425781 l 1.125,1.125 C 70.570451,32.182083 70,34.186133 70,36.255859 c 0,4.453937 2.628341,8.416665 6.708984,10.160157 0.0719,0.284158 0.165584,0.563439 0.298828,0.833984 0.215506,0.43995 0.500721,0.84057 0.847657,1.1875 0.855938,0.855938 1.992369,1.326172 3.197265,1.326172 2.482695,0 4.501954,-2.019051 4.501953,-4.501953 0,-2.482695 -2.01905,-4.501953 -4.501953,-4.501953 v -0.002 c -1.604033,0 -3.084465,0.862946 -3.884765,2.228516 -2.410782,-1.384238 -3.892578,-3.925699 -3.892578,-6.730469 0,-1.188049 0.270187,-2.356573 0.787109,-3.410156 l 0.833984,0.833984 c 0.110902,0.111307 0.277707,0.149249 0.425782,0.09766 0.14848,-0.052 0.254215,-0.185195 0.271484,-0.341797 l 0.542969,-4.91211 c 0.01381,-0.123697 -0.02944,-0.246035 -0.117188,-0.333984 -0.08754,-0.08795 -0.209267,-0.130795 -0.333984,-0.117187 z m -0.417969,0.86914 -0.394531,3.556641 -0.621094,-0.621094 c -0.08978,-0.08998 -0.216679,-0.131686 -0.341797,-0.115234 -0.125934,0.01645 -0.237,0.08953 -0.300781,0.199218 -0.754178,1.29631 -1.154297,2.781262 -1.154297,4.294922 0,3.123102 1.661698,5.954063 4.361328,7.476563 -0.01462,0.04083 -0.0237,0.08377 -0.03711,0.125 -0.01381,0.04245 -0.02842,0.0841 -0.04102,0.126953 -0.04895,0.166555 -0.09144,0.335975 -0.121094,0.507812 -0.04509,0.248005 -0.06836,0.507103 -0.06836,0.769532 0,0.06256 0.0026,0.116814 0.0059,0.162109 6.09e-4,0.0089 -8.11e-4,0.01841 0,0.02734 -3.50721,-1.709641 -5.736328,-5.246068 -5.736328,-9.195313 0,-2.02038 0.587191,-3.972358 1.699219,-5.646484 0.107651,-0.162291 0.08714,-0.379862 -0.05078,-0.517578 l -0.75586,-0.75586 z m 5.785156,12.636719 c 2.031145,0 3.683594,1.652398 3.683594,3.683594 2.08e-4,2.031144 -1.652189,3.683593 -3.683594,3.683593 -0.986349,0 -1.915839,-0.386526 -2.617187,-1.08789 -0.282942,-0.282942 -0.517242,-0.60882 -0.69336,-0.96875 -0.13548,-0.27482 -0.232112,-0.558434 -0.291015,-0.857422 -0.02194,-0.09689 -0.03778,-0.194304 -0.05078,-0.296875 -0.01239,-0.09669 -0.02173,-0.194379 -0.02539,-0.294922 -4.16e-4,-0.01219 -3.26e-4,-0.02492 -0.002,-0.03711 -0.0057,-0.04814 -0.0059,-0.09249 -0.0059,-0.140625 0,-0.213478 0.01967,-0.423423 0.05664,-0.626953 0.05545,-0.320724 0.150364,-0.630108 0.283203,-0.917969 0.599173,-1.299949 1.912744,-2.138672 3.345703,-2.138672 z"
                    id="path65"/>
            <path
                    d="m 75.267578,28.941406 -3.556641,0.394531 0.75586,0.75586 c 0.137919,0.137716 0.158432,0.355287 0.05078,0.517578 -1.112028,1.674126 -1.699219,3.626104 -1.699219,5.646484 0,3.949245 2.229118,7.485672 5.736328,9.195313 -8.11e-4,-0.0089 6.09e-4,-0.01841 0,-0.02734 -0.0032,-0.0453 -0.0059,-0.09955 -0.0059,-0.162109 0,-0.262429 0.02327,-0.521527 0.06836,-0.769532 0.02966,-0.171837 0.07214,-0.341257 0.121094,-0.507812 0.01259,-0.04286 0.0272,-0.0845 0.04102,-0.126953 0.01341,-0.04123 0.02249,-0.08417 0.03711,-0.125 -2.69963,-1.5225 -4.361328,-4.353461 -4.361328,-7.476563 0,-1.51366 0.400119,-2.998612 1.154297,-4.294922 0.06378,-0.109684 0.174847,-0.182766 0.300781,-0.199218 0.125118,-0.01645 0.252017,0.02525 0.341797,0.115234 l 0.621094,0.621094 z"
                    style="fill:#00ff00"
                    id="path66"/></g></g>
    <g
            inkscape:groupmode="layer"
            inkscape:label="Dark"
            id="g4"
            style="display:inline"
            transform="scale(0.125)"><g
       id="g6"
       inkscape:label="Top"
       style="fill:#fcfcfc;fill-opacity:1"><path
         d="M 48,0 V 88 H 208 V 0 Z"
         style="display:inline;fill:#fcfcfc;fill-opacity:1;stroke-width:4"
         id="path5" /><path
            d="m 0,40 v 88 H 256 V 40 H 224 V 96 H 32 V 40 Z"
            style="display:inline;fill:#fcfcfc;fill-opacity:1;stroke-width:4"
            id="path6"/></g>
        <g
                id="g7"
                inkscape:label="Bottom"><path
         d="m 0,128 v 88 h 32 v -56 h 192 v 56 h 32 v -88 z"
         style="display:inline;fill:#cccccc;fill-opacity:1;stroke-width:4"
         id="path3" />
            <path
                    d="m 48,168 v 88 h 160 v -88 h -8 v 80 H 56 v -80 z"
                    style="display:inline;fill:#fcfcfc;fill-opacity:1;stroke-width:4"
                    id="path4"/></g>
        <rect
                style="display:inline;fill:#89cbfa;fill-opacity:1;stroke-width:4"
                id="rect4"
                width="144"
                height="80"
                x="56"
                y="168"
                inkscape:label="BottomColor"/>
        <g
                id="g15950"
                transform="matrix(7.8963866,0,0,7.8701965,-477.74706,-135.64988)"
                style="display:inline"><path
         d="m 82.279297,25.826172 v 1.638672 c 0.08226,0.0039 0.162285,0.01795 0.24414,0.02344 0.136292,0.01036 0.271789,0.02241 0.40625,0.03906 0.148886,0.01849 0.297116,0.04041 0.44336,0.06641 0.131622,0.02336 0.261036,0.04888 0.390625,0.07813 0.144419,0.0327 0.286159,0.06956 0.427734,0.109375 0.126745,0.03575 0.2546,0.07205 0.378906,0.113281 0.139339,0.04631 0.27427,0.09933 0.410157,0.152344 0.120853,0.04712 0.243116,0.09408 0.361328,0.146484 0.133447,0.05931 0.262786,0.123848 0.392578,0.189453 0.114759,0.05809 0.228131,0.114771 0.339844,0.177735 0.126745,0.0715 0.250363,0.148971 0.373047,0.226562 0.107651,0.06804 0.215911,0.13452 0.320312,0.207032 0.119429,0.08327 0.232694,0.172755 0.347656,0.261718 0.09993,0.07739 0.200393,0.152723 0.296875,0.234375 0.111307,0.09404 0.217987,0.195393 0.324219,0.294922 0.09161,0.08592 0.183535,0.169986 0.271484,0.259766 0.102577,0.104807 0.199785,0.214331 0.296875,0.324219 0.08267,0.09364 0.167489,0.186112 0.246094,0.283203 0.09283,0.114759 0.178487,0.233878 0.265625,0.353515 0.07313,0.100341 0.148144,0.199347 0.216797,0.302735 0.08287,0.124712 0.158001,0.253629 0.234375,0.382812 0.06256,0.105826 0.127455,0.209897 0.185547,0.31836 0.07231,0.135075 0.135972,0.274926 0.201172,0.414062 0.05119,0.109482 0.105627,0.21621 0.152344,0.328125 0.06093,0.145839 0.11105,0.297366 0.164062,0.447266 0.0392,0.111104 0.08245,0.220847 0.117188,0.333984 0.04936,0.160258 0.08714,0.324368 0.126953,0.488281 0.0264,0.108063 0.05794,0.214535 0.08008,0.324219 0.03717,0.184239 0.06075,0.372257 0.08594,0.560547 0.01239,0.09364 0.03342,0.184848 0.04297,0.279297 0.02864,0.284793 0.04297,0.573151 0.04297,0.865234 0,1.513661 -0.398165,2.998613 -1.152344,4.294922 -0.06378,0.109685 -0.174847,0.184719 -0.300781,0.201172 -0.125726,0.01503 -0.25397,-0.02721 -0.34375,-0.117188 l -0.621094,-0.621093 -0.257812,2.33789 c 0,0.0014 2.08e-4,0.0027 0,0.0039 l -0.134766,1.214843 3.556641,-0.394531 -0.757813,-0.755859 c -0.137919,-0.137717 -0.158432,-0.353334 -0.05078,-0.515625 1.112028,-1.674127 1.699219,-3.628057 1.699219,-5.648438 0,-5.505232 -4.370673,-10.009104 -9.824219,-10.224609 z"
         style="fill:#00ff00"
         id="path15944" />
            <path
                    d="m 81.871094,25 c -0.226072,0 -0.410157,0.184085 -0.410157,0.410156 v 2.455078 c 0,0.226072 0.184085,0.410157 0.410157,0.410157 4.288427,0 7.777343,3.488968 7.777343,7.777343 0,1.18805 -0.27214,2.354621 -0.789062,3.408203 l -0.833984,-0.833984 c -0.110902,-0.111104 -0.275551,-0.147904 -0.423829,-0.0957 -0.14848,0.052 -0.254215,0.185195 -0.271484,0.341797 l -0.544922,4.910156 c -0.01381,0.123698 0.02944,0.247988 0.117188,0.335938 0.07678,0.07719 0.181005,0.11914 0.289062,0.11914 0.01483,0 0.03009,-3.25e-4 0.04492,-0.002 l 4.914063,-0.544922 c 0.156196,-0.01747 0.287643,-0.123009 0.339843,-0.271484 0.052,-0.14848 0.01561,-0.312724 -0.0957,-0.423828 l -1.126953,-1.126953 c 1.083846,-1.744376 1.654297,-3.749153 1.654297,-5.81836 C 92.921875,29.956621 87.964838,25 81.871094,25 Z m 0.408203,0.826172 c 5.453546,0.215505 9.824219,4.719377 9.824219,10.224609 0,2.020381 -0.587191,3.974311 -1.699219,5.648438 -0.107651,0.162291 -0.08714,0.377908 0.05078,0.515625 l 0.757813,0.755859 -3.556641,0.394531 0.134766,-1.214843 c 2.08e-4,-0.0012 0,-0.0025 0,-0.0039 l 0.257812,-2.33789 0.621094,0.621093 c 0.08978,0.08998 0.218024,0.132215 0.34375,0.117188 0.125934,-0.01645 0.237,-0.09149 0.300781,-0.201172 0.754179,-1.296309 1.152344,-2.781261 1.152344,-4.294922 0,-0.292083 -0.01433,-0.580441 -0.04297,-0.865234 -0.0095,-0.09445 -0.03058,-0.185659 -0.04297,-0.279297 -0.02519,-0.18829 -0.04877,-0.376308 -0.08594,-0.560547 -0.02214,-0.109684 -0.05367,-0.216156 -0.08008,-0.324219 -0.03981,-0.163913 -0.0776,-0.328023 -0.126953,-0.488281 -0.03473,-0.113137 -0.07799,-0.22288 -0.117188,-0.333984 -0.05301,-0.1499 -0.103131,-0.301427 -0.164062,-0.447266 -0.04672,-0.111915 -0.101157,-0.218643 -0.152344,-0.328125 -0.0652,-0.139136 -0.128858,-0.278987 -0.201172,-0.414062 -0.05809,-0.108463 -0.122988,-0.212534 -0.185547,-0.31836 -0.07637,-0.129183 -0.151501,-0.2581 -0.234375,-0.382812 -0.06865,-0.103388 -0.143672,-0.202394 -0.216797,-0.302735 -0.08714,-0.119637 -0.172798,-0.238756 -0.265625,-0.353515 -0.0786,-0.09709 -0.163422,-0.189565 -0.246094,-0.283203 -0.09709,-0.109888 -0.194298,-0.219412 -0.296875,-0.324219 -0.08795,-0.08978 -0.179879,-0.17385 -0.271484,-0.259766 -0.106232,-0.09953 -0.212912,-0.200878 -0.324219,-0.294922 -0.09648,-0.08165 -0.196945,-0.156986 -0.296875,-0.234375 -0.114962,-0.08896 -0.228227,-0.178444 -0.347656,-0.261718 -0.104401,-0.07251 -0.212661,-0.138987 -0.320312,-0.207032 -0.122684,-0.07759 -0.246302,-0.155065 -0.373047,-0.226562 -0.111713,-0.06296 -0.225085,-0.119642 -0.339844,-0.177735 -0.129792,-0.06561 -0.259131,-0.130144 -0.392578,-0.189453 -0.118212,-0.0524 -0.240475,-0.09936 -0.361328,-0.146484 -0.135887,-0.05301 -0.270818,-0.106034 -0.410157,-0.152344 -0.124306,-0.04123 -0.252161,-0.07753 -0.378906,-0.113281 -0.141575,-0.03981 -0.283315,-0.07667 -0.427734,-0.109375 -0.129589,-0.02925 -0.259003,-0.05477 -0.390625,-0.07813 -0.146244,-0.026 -0.294474,-0.04792 -0.44336,-0.06641 -0.134461,-0.01666 -0.269958,-0.0287 -0.40625,-0.03906 -0.08186,-0.0055 -0.161879,-0.01958 -0.24414,-0.02344 z"
                    id="path15945"/>
            <path
                    d="m 82.689453,43.626953 c -0.106027,-10e-7 -0.211877,0.04 -0.289062,0.117188 l -1.876954,1.876953 c -0.160065,0.159857 -0.420226,0.159446 -0.580078,0 l -0.238281,-0.240235 c -0.07739,-0.07739 -0.181737,-0.11914 -0.291016,-0.11914 -0.109278,0 -0.211876,0.04216 -0.289062,0.11914 -0.07739,0.07759 -0.119141,0.179784 -0.119141,0.289063 0,0.109279 0.04175,0.211877 0.119141,0.289062 l 0.818359,0.820313 c 0.154783,0.154782 0.425707,0.154371 0.580078,0 l 2.455079,-2.457031 c 0.07739,-0.07739 0.121093,-0.179784 0.121093,-0.289063 0,-0.109279 -0.04391,-0.211877 -0.121093,-0.289062 -0.07739,-0.0776 -0.183036,-0.117187 -0.289063,-0.117188 z"
                    style="fill:#00ff00"
                    id="path15946"/>
            <path
                    d="m 82.689453,42.816406 c -0.318279,2.6e-5 -0.635536,0.115798 -0.867187,0.347656 l -1.589844,1.589844 c -0.467779,-0.418219 -1.239093,-0.397625 -1.685547,0.04883 -0.23216,0.231958 -0.359375,0.539185 -0.359375,0.867188 0,0.328003 0.127412,0.637178 0.359375,0.86914 l 0.818359,0.81836 c 0.231958,0.23216 0.54093,0.359375 0.869141,0.359375 0.328211,0 0.635433,-0.127615 0.867187,-0.359375 l 2.457032,-2.455078 c 0.231957,-0.232161 0.359375,-0.541138 0.359375,-0.869141 0,-0.328034 -0.127615,-0.637386 -0.359375,-0.869141 -0.231859,-0.23196 -0.550861,-0.347681 -0.869141,-0.347656 z m 0,0.810547 c 0.106027,10e-7 0.211671,0.03959 0.289063,0.117188 0.07719,0.07719 0.121093,0.179783 0.121093,0.289062 0,0.109279 -0.04371,0.211674 -0.121093,0.289063 l -2.455079,2.457031 c -0.154371,0.154371 -0.425295,0.154782 -0.580078,0 L 79.125,45.958984 c -0.07739,-0.07719 -0.119141,-0.179783 -0.119141,-0.289062 0,-0.109279 0.04175,-0.211471 0.119141,-0.289063 0.07719,-0.07698 0.179784,-0.11914 0.289062,-0.11914 0.109279,0 0.213628,0.04175 0.291016,0.11914 l 0.238281,0.240235 c 0.159852,0.159446 0.420013,0.159857 0.580078,0 l 1.876954,-1.876953 c 0.07719,-0.07719 0.183035,-0.117189 0.289062,-0.117188 z"
                    id="path15947"/>
            <path
                    d="m 81.052734,41.578125 c -1.432959,0 -2.74653,0.838723 -3.345703,2.138672 -0.132839,0.287861 -0.227752,0.597245 -0.283203,0.917969 -0.03697,0.20353 -0.05664,0.413475 -0.05664,0.626953 0,0.04814 1.72e-4,0.09249 0.0059,0.140625 0.0016,0.01219 0.0015,0.02492 0.002,0.03711 0.0037,0.100543 0.013,0.198237 0.02539,0.294922 0.013,0.102571 0.02884,0.199987 0.05078,0.296875 0.0589,0.298988 0.155535,0.582602 0.291015,0.857422 0.176118,0.35993 0.410418,0.685808 0.69336,0.96875 0.701348,0.701364 1.630838,1.08789 2.617187,1.08789 2.031405,0 3.683802,-1.652449 3.683594,-3.683593 0,-2.031196 -1.652449,-3.683594 -3.683594,-3.683594 z m 1.636719,1.238281 c 0.31828,-2.5e-5 0.637282,0.115696 0.869141,0.347656 0.23176,0.231755 0.359375,0.541107 0.359375,0.869141 0,0.328003 -0.127418,0.63698 -0.359375,0.869141 l -2.457032,2.455078 c -0.231754,0.23176 -0.538976,0.359375 -0.867187,0.359375 -0.328211,0 -0.637183,-0.127215 -0.869141,-0.359375 l -0.818359,-0.81836 C 78.314912,46.3071 78.1875,45.997925 78.1875,45.669922 c 0,-0.328003 0.127215,-0.63523 0.359375,-0.867188 0.446454,-0.446453 1.217768,-0.467047 1.685547,-0.04883 l 1.589844,-1.589844 c 0.231651,-0.231858 0.548908,-0.34763 0.867187,-0.347656 z"
                    style="fill:#fcfcfc;fill-opacity:1"
                    id="path15948"/>
            <path
                    d="m 75.685547,28.072266 -4.91211,0.544921 c -0.156196,0.01747 -0.289596,0.121057 -0.341796,0.269532 -0.052,0.14848 -0.01365,0.314677 0.09766,0.425781 l 1.125,1.125 C 70.570451,32.182083 70,34.186133 70,36.255859 c 0,4.453937 2.628341,8.416665 6.708984,10.160157 0.0719,0.284158 0.165584,0.563439 0.298828,0.833984 0.215506,0.43995 0.500721,0.84057 0.847657,1.1875 0.855938,0.855938 1.992369,1.326172 3.197265,1.326172 2.482695,0 4.501954,-2.019051 4.501953,-4.501953 0,-2.482695 -2.01905,-4.501953 -4.501953,-4.501953 v -0.002 c -1.604033,0 -3.084465,0.862946 -3.884765,2.228516 -2.410782,-1.384238 -3.892578,-3.925699 -3.892578,-6.730469 0,-1.188049 0.270187,-2.356573 0.787109,-3.410156 l 0.833984,0.833984 c 0.110902,0.111307 0.277707,0.149249 0.425782,0.09766 0.14848,-0.052 0.254215,-0.185195 0.271484,-0.341797 l 0.542969,-4.91211 c 0.01381,-0.123697 -0.02944,-0.246035 -0.117188,-0.333984 -0.08754,-0.08795 -0.209267,-0.130795 -0.333984,-0.117187 z m -0.417969,0.86914 -0.394531,3.556641 -0.621094,-0.621094 c -0.08978,-0.08998 -0.216679,-0.131686 -0.341797,-0.115234 -0.125934,0.01645 -0.237,0.08953 -0.300781,0.199218 -0.754178,1.29631 -1.154297,2.781262 -1.154297,4.294922 0,3.123102 1.661698,5.954063 4.361328,7.476563 -0.01462,0.04083 -0.0237,0.08377 -0.03711,0.125 -0.01381,0.04245 -0.02842,0.0841 -0.04102,0.126953 -0.04895,0.166555 -0.09144,0.335975 -0.121094,0.507812 -0.04509,0.248005 -0.06836,0.507103 -0.06836,0.769532 0,0.06256 0.0026,0.116814 0.0059,0.162109 6.09e-4,0.0089 -8.11e-4,0.01841 0,0.02734 -3.50721,-1.709641 -5.736328,-5.246068 -5.736328,-9.195313 0,-2.02038 0.587191,-3.972358 1.699219,-5.646484 0.107651,-0.162291 0.08714,-0.379862 -0.05078,-0.517578 l -0.75586,-0.75586 z m 5.785156,12.636719 c 2.031145,0 3.683594,1.652398 3.683594,3.683594 2.08e-4,2.031144 -1.652189,3.683593 -3.683594,3.683593 -0.986349,0 -1.915839,-0.386526 -2.617187,-1.08789 -0.282942,-0.282942 -0.517242,-0.60882 -0.69336,-0.96875 -0.13548,-0.27482 -0.232112,-0.558434 -0.291015,-0.857422 -0.02194,-0.09689 -0.03778,-0.194304 -0.05078,-0.296875 -0.01239,-0.09669 -0.02173,-0.194379 -0.02539,-0.294922 -4.16e-4,-0.01219 -3.26e-4,-0.02492 -0.002,-0.03711 -0.0057,-0.04814 -0.0059,-0.09249 -0.0059,-0.140625 0,-0.213478 0.01967,-0.423423 0.05664,-0.626953 0.05545,-0.320724 0.150364,-0.630108 0.283203,-0.917969 0.599173,-1.299949 1.912744,-2.138672 3.345703,-2.138672 z"
                    id="path15949"/>
            <path
                    d="m 75.267578,28.941406 -3.556641,0.394531 0.75586,0.75586 c 0.137919,0.137716 0.158432,0.355287 0.05078,0.517578 -1.112028,1.674126 -1.699219,3.626104 -1.699219,5.646484 0,3.949245 2.229118,7.485672 5.736328,9.195313 -8.11e-4,-0.0089 6.09e-4,-0.01841 0,-0.02734 -0.0032,-0.0453 -0.0059,-0.09955 -0.0059,-0.162109 0,-0.262429 0.02327,-0.521527 0.06836,-0.769532 0.02966,-0.171837 0.07214,-0.341257 0.121094,-0.507812 0.01259,-0.04286 0.0272,-0.0845 0.04102,-0.126953 0.01341,-0.04123 0.02249,-0.08417 0.03711,-0.125 -2.69963,-1.5225 -4.361328,-4.353461 -4.361328,-7.476563 0,-1.51366 0.400119,-2.998612 1.154297,-4.294922 0.06378,-0.109684 0.174847,-0.182766 0.300781,-0.199218 0.125118,-0.01645 0.252017,0.02525 0.341797,0.115234 l 0.621094,0.621094 z"
                    style="fill:#00ff00"
                    id="path15950"/></g></g></svg>
